PathFileType  4	(X/Y/Z) C:\simtk\uwmodels\fbknee\data\invivovalid2\exp\aclc01\Files_W_HJCs
DataRate	CameraRate	NumFrames	NumMarkers	Units	OrigDataRate	OrigDataStartFrame	OrigNumFrames
  200.0      200.0        11         42 mm      200.0         194       515
Frame#	Time            R.Shoulder                       R.Clavicle                       R.Bicep                          R.Elbow                          R.Forearm                        R.Wrist                          L.Shoulder                       L.Clavicle                       L.Scapula                        L.Bicep                          L.Elbow                          L.Forearm                        L.Wrist                          R.ASIS                           R.PSIS                           S2                               L.PSIS                           L.ASIS                           R.TH1                            R.TH2                            R.TH3                            R.Knee                           R.SH1                            R.SH2                            R.SH3                            R.SH4                            R.Ankle                          R.Heel                           R.MT5                            L.TH1                            L.TH2                            L.TH3                            L.TH4                            L.Knee                           L.SH1                            L.SH2                            L.SH3                            L.Ankle                          L.Heel                           L.MT5                            R_HJC                            L_HJC                  
                     X1         Y1         Z1         X2         Y2         Z2         X3         Y3         Z3         X4         Y4         Z4         X5         Y5         Z5         X6         Y6         Z6         X7         Y7         Z7         X8         Y8         Z8         X9         Y9         Z9         X10         Y10         Z10         X11         Y11         Z11         X12         Y12         Z12         X13         Y13         Z13         X14         Y14         Z14         X15         Y15         Z15         X16         Y16         Z16         X17         Y17         Z17         X18         Y18         Z18         X19         Y19         Z19         X20         Y20         Z20         X21         Y21         Z21         X22         Y22         Z22         X23         Y23         Z23         X24         Y24         Z24         X25         Y25         Z25         X26         Y26         Z26         X27         Y27         Z27         X28         Y28         Z28         X29         Y29         Z29         X30         Y30         Z30         X31         Y31         Z31         X32         Y32         Z32         X33         Y33         Z33         X34         Y34         Z34         X35         Y35         Z35         X36         Y36         Z36         X37         Y37         Z37         X38         Y38         Z38         X39         Y39         Z39         X40         Y40         Z40         X41         Y41         Z41         X42         Y42         Z42         

	194	0.96500	-375.340	62.706	1332.027	-326.751	213.797	1315.641	-337.175	52.573	1107.137	-421.667	-36.605	1027.693	-313.297	-18.961	948.573	-303.839	-78.324	844.285	-375.456	445.630	1312.135	-321.473	272.511	1309.615	-503.757	336.839	1308.987	-355.074	452.455	1131.863	-458.763	507.022	1004.851	-395.954	501.086	905.863	-431.149	537.748	795.995	-310.716	93.938	875.801	-545.680	187.483	923.321	-548.485	240.080	920.429	-535.794	293.709	937.876	-296.462	354.357	885.889	-343.117	20.962	660.330	-487.251	72.134	637.489	-470.695	78.015	564.309	-413.811	42.779	454.956	-473.805	28.778	353.929	-527.423	49.534	304.110	-518.322	103.822	434.452	-577.245	115.706	386.757	-686.417	104.063	212.359	-740.796	173.560	243.317	-675.772	65.302	86.867	-271.044	392.490	648.166	-245.238	361.153	574.721	-407.546	402.967	600.538	-389.420	380.728	527.585	-323.830	376.692	462.821	-280.860	379.022	369.752	-386.630	371.784	375.680	-398.044	375.475	298.933	-338.180	356.732	72.098	-422.340	322.719	40.704	-235.876	370.387	22.929	-401.018	139.647	823.955	-391.735	335.282	810.187
	195	0.97000	-369.182	62.800	1333.344	-320.399	213.668	1316.970	-331.553	53.423	1107.983	-416.995	-35.852	1029.218	-308.632	-19.660	948.728	-301.172	-77.771	844.347	-368.533	445.684	1313.412	-314.944	272.238	1311.091	-498.906	336.651	1311.968	-345.670	452.006	1133.171	-443.176	507.656	1004.524	-382.551	500.439	907.079	-415.465	537.066	796.275	-304.713	93.944	876.645	-539.831	188.729	925.634	-542.546	240.757	922.460	-529.687	295.095	939.590	-290.528	354.805	886.360	-334.485	21.097	663.212	-477.947	72.817	637.948	-460.333	78.896	565.190	-402.276	43.392	456.367	-460.342	29.635	354.637	-513.662	49.883	304.162	-505.866	104.260	434.987	-564.543	115.903	386.950	-671.463	105.171	210.794	-726.629	174.423	241.231	-658.339	66.717	85.645	-267.702	392.818	648.237	-241.795	362.209	574.310	-405.354	402.284	602.370	-387.371	380.464	528.527	-321.871	376.948	462.734	-278.549	378.947	369.875	-385.095	372.621	376.404	-398.297	376.225	300.126	-337.870	356.831	72.260	-422.232	322.897	40.972	-235.606	370.497	23.164	-395.697	140.119	825.392	-386.127	335.705	811.122
	196	0.97500	-363.604	62.991	1334.579	-314.718	213.855	1317.940	-326.000	53.102	1109.531	-412.703	-35.607	1030.371	-304.184	-20.663	949.132	-297.382	-78.512	844.868	-361.127	445.471	1314.687	-308.667	271.972	1311.967	-491.146	338.101	1312.644	-336.133	451.855	1134.947	-431.745	509.124	1005.471	-369.055	500.033	908.937	-398.907	537.565	797.867	-298.596	94.016	878.207	-533.299	189.116	927.826	-536.550	241.881	924.429	-523.810	295.229	941.051	-284.611	354.515	887.316	-325.969	21.289	665.418	-468.718	73.189	638.682	-449.876	79.126	565.727	-390.121	43.933	457.925	-446.926	30.346	355.220	-499.413	50.846	304.286	-493.484	104.021	435.192	-551.461	116.481	386.593	-656.734	107.187	208.724	-712.821	176.188	237.794	-639.771	68.720	83.865	-263.636	393.625	648.012	-238.030	362.999	574.480	-402.075	402.427	603.231	-385.371	381.629	529.181	-319.117	377.077	463.071	-277.193	378.818	369.353	-382.521	373.523	377.642	-395.022	376.903	300.019	-337.517	356.836	72.604	-422.232	322.897	40.972	-235.544	370.571	23.074	-389.918	140.108	827.185	-380.222	335.641	812.293
	197	0.98000	-357.744	63.359	1335.831	-307.909	213.800	1319.301	-320.676	53.766	1110.111	-407.273	-35.118	1031.738	-299.606	-19.821	949.922	-294.254	-78.647	845.289	-353.868	445.808	1316.426	-302.414	272.489	1313.704	-484.384	338.142	1313.998	-328.006	450.671	1136.781	-420.249	509.890	1006.192	-356.632	499.990	911.510	-382.982	536.816	798.682	-292.253	93.138	880.141	-527.620	189.196	929.100	-530.374	242.912	926.896	-517.265	296.011	943.208	-278.569	354.741	887.969	-317.089	21.384	667.919	-459.640	73.321	638.844	-439.782	79.746	566.639	-378.377	44.805	459.706	-433.780	31.040	355.463	-485.257	52.148	303.825	-482.035	104.619	435.460	-538.591	116.689	385.384	-641.630	108.813	206.497	-698.472	178.126	233.785	-622.151	69.383	82.577	-260.285	394.464	648.148	-235.426	363.651	573.693	-399.803	402.158	604.390	-382.335	381.952	530.412	-317.174	377.526	463.312	-274.829	378.941	369.497	-381.619	373.825	377.768	-393.175	377.395	300.581	-337.250	356.921	72.696	-422.228	323.252	41.069	-235.466	370.682	22.982	-384.193	139.978	829.076	-374.149	335.440	813.491
	198	0.98500	-351.590	63.790	1336.851	-301.579	213.611	1320.579	-315.195	53.707	1111.452	-402.393	-34.465	1032.666	-295.885	-19.997	950.637	-291.904	-79.705	846.335	-346.589	446.802	1317.574	-296.012	271.814	1314.765	-478.757	339.507	1316.299	-320.118	449.404	1138.515	-409.530	510.876	1007.498	-342.758	499.229	913.345	-365.503	535.365	800.631	-286.637	94.205	881.548	-520.935	190.270	931.536	-522.569	242.097	928.594	-510.966	296.148	945.366	-272.586	354.885	888.933	-307.816	21.417	670.059	-450.587	73.480	639.617	-429.795	79.979	567.425	-366.648	45.629	460.816	-420.205	31.609	355.845	-470.936	53.003	303.440	-470.343	104.087	434.996	-526.156	117.364	384.771	-626.272	109.338	204.247	-683.919	179.436	229.483	-603.369	70.934	80.350	-256.991	395.039	647.974	-232.702	364.741	573.402	-396.428	402.266	605.495	-381.657	381.752	531.361	-314.359	378.215	463.634	-273.581	378.582	369.774	-379.409	374.374	378.392	-393.543	377.858	301.408	-337.195	356.989	72.771	-422.228	323.252	41.069	-235.544	370.571	23.074	-378.002	140.246	830.717	-368.231	335.699	814.856
	199	0.99000	-346.053	63.303	1338.260	-295.360	213.983	1321.969	-309.882	54.361	1112.661	-398.196	-33.868	1034.027	-290.857	-20.218	950.960	-289.344	-79.974	846.378	-339.589	446.040	1319.383	-289.484	272.081	1315.866	-471.216	340.053	1317.512	-309.680	448.919	1140.259	-397.971	511.970	1008.261	-330.135	498.444	915.971	-349.477	535.383	802.328	-280.407	93.412	883.465	-515.823	190.198	933.546	-517.980	242.929	931.094	-504.405	296.753	947.050	-266.779	354.877	889.625	-299.849	21.722	672.839	-441.429	73.491	640.286	-419.519	80.201	568.291	-354.830	45.584	462.022	-407.425	32.362	355.702	-457.329	53.847	302.898	-458.628	103.760	435.193	-513.816	116.941	383.783	-610.582	111.527	201.525	-668.928	180.305	225.320	-583.787	72.130	78.783	-253.653	395.960	647.748	-229.739	365.600	573.470	-392.982	402.506	607.083	-378.125	381.764	532.520	-313.173	378.144	464.098	-272.193	379.509	370.198	-378.385	374.662	379.068	-392.605	377.888	302.456	-337.033	357.018	72.786	-421.911	323.109	41.000	-235.466	370.682	22.982	-372.753	139.895	832.785	-362.716	335.257	815.986
	200	0.99500	-339.528	59.565	1339.196	-289.087	213.854	1323.194	-304.437	53.986	1113.708	-393.302	-33.401	1035.539	-287.456	-20.644	951.623	-286.061	-79.976	846.821	-332.956	446.057	1319.953	-282.863	272.112	1317.529	-464.449	340.844	1319.095	-302.043	447.853	1142.037	-386.568	513.471	1009.568	-316.228	497.880	918.416	-332.430	534.539	805.355	-274.558	92.186	884.935	-509.021	191.365	935.661	-511.979	243.428	933.174	-498.112	297.196	948.764	-260.613	355.354	890.910	-291.621	21.967	676.069	-432.775	73.575	640.735	-409.376	80.529	569.069	-342.820	46.160	463.443	-393.396	33.425	355.773	-442.889	54.934	302.231	-447.154	103.818	434.928	-500.600	117.823	382.453	-594.683	113.058	198.419	-653.141	181.900	220.144	-564.141	73.594	76.736	-250.167	396.685	647.464	-226.678	366.450	572.667	-391.298	401.696	608.111	-375.897	380.821	533.127	-311.509	378.908	464.175	-271.608	380.204	370.688	-377.617	374.735	379.427	-391.840	378.210	303.123	-337.033	357.018	72.786	-421.953	323.598	41.260	-235.573	370.820	22.861	-367.015	139.911	834.556	-356.505	335.217	817.407
	201	1.00000	-333.720	62.147	1340.637	-283.435	214.118	1324.145	-298.886	54.836	1115.284	-388.193	-32.729	1036.944	-282.576	-20.734	952.680	-282.439	-80.928	847.576	-324.541	445.347	1321.980	-276.986	272.350	1318.374	-457.346	342.147	1320.346	-298.058	450.912	1145.383	-373.955	513.737	1010.271	-304.541	496.912	920.941	-316.969	534.773	806.967	-268.410	94.503	886.599	-502.938	191.826	937.490	-506.008	243.125	935.539	-492.376	297.748	950.544	-254.519	355.141	891.809	-285.098	22.437	677.761	-423.916	73.135	641.230	-399.537	80.242	570.219	-331.260	46.301	465.108	-380.429	34.144	355.901	-428.602	56.227	301.526	-435.355	104.465	434.393	-488.177	117.914	381.234	-579.030	114.482	194.997	-637.889	183.780	214.842	-544.864	73.598	74.985	-247.250	397.325	647.223	-224.238	367.523	572.762	-386.398	401.591	609.561	-371.961	381.287	533.946	-310.538	378.837	464.880	-270.513	380.698	370.874	-376.983	374.265	380.574	-391.562	377.866	303.782	-337.068	357.157	72.909	-421.900	323.747	41.358	-235.467	370.667	22.709	-361.005	140.434	836.311	-351.055	335.735	818.774
	202	1.00500	-327.776	60.662	1341.976	-277.147	213.613	1325.624	-293.325	53.858	1116.240	-383.358	-32.023	1038.076	-278.448	-20.860	953.417	-279.683	-79.858	848.279	-318.230	445.614	1323.534	-270.373	271.762	1319.932	-452.131	341.807	1322.396	-289.918	449.771	1147.784	-360.301	514.693	1012.794	-290.829	496.295	924.425	-300.693	533.410	809.958	-262.689	94.770	888.648	-497.535	191.366	938.531	-500.104	243.347	937.152	-486.381	297.909	952.486	-248.184	355.904	893.022	-272.488	22.701	680.538	-415.199	73.111	641.770	-389.751	80.871	571.411	-319.434	47.359	466.501	-367.605	35.115	356.297	-414.214	57.529	300.929	-424.318	104.241	434.043	-475.927	118.703	379.469	-562.128	115.225	192.173	-622.463	185.310	209.117	-524.811	74.700	72.487	-243.842	398.391	646.925	-221.604	368.225	571.834	-385.586	401.579	610.412	-372.827	380.761	535.680	-308.783	379.369	464.941	-269.839	380.946	370.876	-375.518	374.336	381.245	-391.133	377.710	304.624	-336.626	357.210	73.216	-421.619	323.951	42.276	-235.632	370.754	22.581	-355.032	140.577	837.989	-345.197	335.869	820.282
	203	1.01000	-322.355	62.446	1343.082	-271.063	213.774	1326.659	-287.669	54.722	1118.104	-378.829	-31.722	1039.637	-273.914	-21.167	954.060	-277.334	-81.956	848.927	-310.909	445.127	1325.191	-263.793	272.413	1320.763	-444.769	342.524	1322.371	-281.746	449.302	1149.414	-352.106	515.323	1012.957	-279.140	495.612	927.435	-284.459	532.465	813.106	-255.832	94.609	890.630	-490.953	192.792	940.789	-494.368	243.756	938.333	-481.058	298.159	953.493	-242.553	355.921	894.357	-264.715	23.046	683.807	-406.136	73.048	642.918	-380.148	80.608	572.402	-307.664	47.890	467.883	-353.745	36.096	356.299	-400.071	58.892	300.214	-412.903	104.687	433.669	-463.321	119.381	377.641	-545.766	116.578	187.961	-606.589	187.009	203.013	-504.709	75.207	69.666	-240.366	398.754	646.175	-219.062	368.395	571.063	-382.249	400.884	611.731	-369.804	380.895	536.749	-307.566	379.665	465.838	-269.475	381.913	370.946	-375.136	374.062	381.636	-390.327	377.277	305.192	-336.505	357.183	73.221	-421.688	324.036	42.180	-235.467	370.667	22.709	-348.872	140.594	840.040	-339.163	335.805	821.401
	204	1.01500	-315.823	62.328	1344.424	-264.293	213.576	1327.863	-281.940	54.937	1119.208	-373.932	-31.347	1041.056	-270.023	-21.379	954.595	-273.200	-81.925	850.436	-303.639	445.064	1326.715	-257.360	271.937	1321.819	-438.288	342.834	1324.327	-273.386	448.509	1152.228	-341.329	516.762	1014.401	-266.545	494.668	929.747	-269.017	531.719	816.076	-242.713	96.085	893.691	-484.160	191.788	943.040	-488.372	243.568	939.849	-475.405	298.310	953.374	-237.429	356.061	894.904	-257.436	23.276	686.354	-397.496	72.544	643.640	-370.533	80.535	573.423	-295.934	48.265	469.175	-341.209	37.164	356.755	-385.962	60.077	299.716	-401.398	105.410	432.638	-450.948	119.758	376.099	-529.054	118.315	184.466	-590.365	188.161	196.308	-484.100	74.808	68.654	-237.315	399.078	645.757	-216.796	369.101	570.311	-379.189	400.899	612.613	-367.945	380.488	538.241	-307.424	379.826	465.952	-269.075	382.646	371.152	-374.659	373.377	381.767	-390.518	376.609	305.534	-336.385	357.203	73.355	-421.502	323.619	42.520	-235.467	370.667	22.709	-339.758	140.226	843.022	-332.974	335.280	821.644
